<svg width="39" height="56" viewBox="0 0 39 56" fill="none" xmlns="http://www.w3.org/2000/svg">
<path fill-rule="evenodd" clip-rule="evenodd" d="M11.2765 55.6902H16.0131L16.0146 31.41L11.2782 31.4093L11.2765 55.6902Z" fill="#E6E9ED"/>
<path fill-rule="evenodd" clip-rule="evenodd" d="M21.674 55.691H21.6752L21.6775 25.7521H21.6759L21.674 55.691ZM16.9159 55.6902L21.6511 55.6911L21.6534 25.7521L16.9181 25.7511L16.9159 55.6902Z" fill="#E6E9ED"/>
<path fill-rule="evenodd" clip-rule="evenodd" d="M27.3092 55.6918H27.3131L27.3146 31.4103H27.3115L27.3092 55.6918ZM22.5553 55.6911L27.289 55.6918L27.2905 31.4103H22.5575L22.5553 55.6911Z" fill="#E6E9ED"/>
<path fill-rule="evenodd" clip-rule="evenodd" d="M4.75709 33.0909L0 28.3367L0.001232 16.9785L4.75832 16.9792L4.75709 33.0909Z" fill="#E6E9ED"/>
<path fill-rule="evenodd" clip-rule="evenodd" d="M10.397 38.76L5.63489 33.9784L5.64217 11.303L10.3987 11.304L10.397 38.76Z" fill="#E6E9ED"/>
<path fill-rule="evenodd" clip-rule="evenodd" d="M11.2784 30.5552L16.0379 30.5559L16.04 5.67465L11.2807 5.67432L11.2784 30.5552Z" fill="#E6E9ED"/>
<path fill-rule="evenodd" clip-rule="evenodd" d="M16.8794 24.8882L21.6759 24.8885L21.6775 0.000672L16.8816 0L16.8794 24.8882Z" fill="#E6E9ED"/>
<path fill-rule="evenodd" clip-rule="evenodd" d="M33.8351 33.0598L38.5904 28.3307L38.5916 16.9677L33.8364 16.9674L33.8351 33.0598Z" fill="#E6E9ED"/>
<path fill-rule="evenodd" clip-rule="evenodd" d="M28.1941 38.7047L32.9538 33.9064L32.9551 11.2893H28.1967L28.1941 38.7047Z" fill="#E6E9ED"/>
<path fill-rule="evenodd" clip-rule="evenodd" d="M22.5576 30.5562H27.3131L27.3147 5.67524L22.5595 5.67468L22.5576 30.5562Z" fill="#E6E9ED"/>
</svg>
