<svg width="56" height="25" viewBox="0 0 56 25" fill="none" xmlns="http://www.w3.org/2000/svg">
<path d="M39.6171 2.20372V3.10938H47.3819C47.8993 3.10938 48.678 3.10938 49.1964 3.62679C49.7148 4.14518 49.7148 4.92169 49.7148 5.44008V13.2061C49.7148 13.7245 49.7148 14.502 49.1964 15.0185C48.678 15.5368 47.8993 15.5368 47.3819 15.5368H43.6291C42.9828 15.5368 42.1394 15.5368 41.8159 14.8248C41.4952 14.1118 41.9448 13.4643 42.3354 12.9478L47.3821 6.21462H39.6173L36.5087 10.358C35.9881 11.0513 35.5383 11.6539 35.5383 12.4296C35.5383 13.2061 35.9568 13.7661 36.5087 14.5022L37.2852 15.537C38.0627 16.5717 38.8382 17.6108 39.8752 18.127C40.912 18.6423 42.1392 18.6423 43.8248 18.6423H47.1871C49.1306 18.6423 52.0424 18.6423 53.987 16.7018C55.9275 14.7603 55.9275 11.9122 55.9275 10.8752V7.76901C55.9275 6.73203 55.9275 3.8851 53.987 1.94344C52.0424 0 49.1306 0.00512676 47.1871 0.00295775L41.8157 0C41.3004 0 40.6497 0 40.1313 0.51938C39.6171 1.03797 39.6171 1.68532 39.6171 2.20372Z" />
<path d="M30.2948 6.21484H38.0638L28.7394 18.6423H20.9726L30.2948 6.21484Z"/>
<path d="M0 8.41659C0 7.89918 0 7.25183 0.517803 6.73225C1.03423 6.21484 1.68434 6.21484 2.20115 6.21484H15.2139C16.896 6.21484 18.1251 6.21484 19.1623 6.73225C20.1949 7.25183 20.9732 8.28763 21.7481 9.32344L22.5262 10.3583C23.0795 11.0932 23.4995 11.6541 23.4995 12.4299C23.4995 13.2064 23.0456 13.808 22.5262 14.5024L19.42 18.6423H11.6523L16.6998 11.9123C17.0877 11.3939 17.543 10.7485 17.2176 10.0343C16.896 9.32344 16.0539 9.32344 15.4069 9.32344H9.32124V24.8593H3.10741V9.32324H0V8.41659Z"/>
</svg>
